<svg xmlns="http://www.w3.org/2000/svg" viewBox="0 0 215.99 215.99"><defs><style>.cls-1{fill:#00ff7f;}.cls-2,.cls-3{fill:#fff;}.cls-3{stroke:#fff;stroke-miterlimit:10;}</style></defs><title>Asset 31@red</title><g id="Layer_2" data-name="Layer 2"><g id="Layer_1-2" data-name="Layer 1"><rect class="cls-1" width="215.99" height="215.99"/><path class="cls-2" d="M84.3,167.31a.56.56,0,0,0-.4-.17.54.54,0,0,0-.4.17.54.54,0,0,0-.17.39.57.57,0,0,0,.17.41.54.54,0,0,0,.4.16.55.55,0,0,0,.4-.16.56.56,0,0,0,.16-.41A.53.53,0,0,0,84.3,167.31Zm-1.66,0a.54.54,0,0,0-.39-.17.54.54,0,0,0-.4.17.54.54,0,0,0-.17.39.57.57,0,0,0,.17.41.54.54,0,0,0,.4.16.53.53,0,0,0,.39-.16.57.57,0,0,0,.17-.41A.54.54,0,0,0,82.64,167.31Z"/><path class="cls-2" d="M88.8,175.77a.55.55,0,0,0-.4-.16.54.54,0,0,0-.4.16.57.57,0,0,0,.4,1,.56.56,0,0,0,.4-.17.58.58,0,0,0,0-.8Zm-1.66,0a.53.53,0,0,0-.39-.16.54.54,0,0,0-.4.16.57.57,0,0,0,.4,1,.54.54,0,0,0,.39-.17.56.56,0,0,0,0-.8Z"/><path class="cls-2" d="M88.32,169.83a.42.42,0,0,0-.29-.14.45.45,0,0,0-.32.14.42.42,0,0,0-.13.3v2.08a1.5,1.5,0,0,1-.46,1.12,1.55,1.55,0,0,1-1.12.45h-.32c-.46,0-.69-.26-.69-.79v-3.41a.42.42,0,0,0-.14-.3.38.38,0,0,0-.3-.13.44.44,0,0,0-.43.43v.27a4,4,0,0,0-2.47.83,2.32,2.32,0,0,0-1,1.83,1.69,1.69,0,0,0,.45,1.2,1.49,1.49,0,0,0,1.15.48,1.76,1.76,0,0,0,1.1-.37,2.26,2.26,0,0,0,.72-1v.43a1.2,1.2,0,0,0,.41,1,1.7,1.7,0,0,0,1.1.33H86a2.4,2.4,0,0,0,1.78-.68,2.53,2.53,0,0,0,.67-1.84v-1.89A.42.42,0,0,0,88.32,169.83Zm-4.2,1.25a3.08,3.08,0,0,1-.52,1.51,1.36,1.36,0,0,1-1.17.75.93.93,0,0,1-.66-.23.84.84,0,0,1-.25-.67,1.46,1.46,0,0,1,.72-1.24,3.54,3.54,0,0,1,1.88-.53Z"/><path class="cls-2" d="M90.59,173.78h1.94a1.71,1.71,0,0,0,1-.27.83.83,0,0,0,.38-.74,1.44,1.44,0,0,0-.2-.71,2.16,2.16,0,0,0-.61-.65,8,8,0,0,0-.75-.52c-.23-.14-.52-.3-.89-.49l-.27-.14-.13-.12A.34.34,0,0,1,91,170a.39.39,0,0,1,.1-.25.34.34,0,0,1,.23-.1,2.31,2.31,0,0,1,.81.26,7.77,7.77,0,0,1,1.14.68,4.49,4.49,0,0,1,1,1,2,2,0,0,1,.44,1.19c0,1.19-.78,1.78-2.33,1.78H90.59a.35.35,0,0,1-.26-.1.36.36,0,0,1-.11-.27.33.33,0,0,1,.11-.27A.36.36,0,0,1,90.59,173.78Z"/><path class="cls-2" d="M122,166.19a.43.43,0,0,0-.62,0,.44.44,0,0,0-.12.3v5.68a1.64,1.64,0,0,1-2.68,1.24,1.16,1.16,0,0,1-.43-.91v-2.37a.42.42,0,0,0-.13-.3.4.4,0,0,0-.61,0,.42.42,0,0,0-.13.3v2.37a1.25,1.25,0,0,1-.37.91,1.29,1.29,0,0,1-1.81,0,1.25,1.25,0,0,1-.37-.91v-1.72a.42.42,0,0,0-.13-.31.45.45,0,0,0-.3-.13.42.42,0,0,0-.3.13.43.43,0,0,0-.14.31v1.72a1.25,1.25,0,0,1-.37.91,1.19,1.19,0,0,1-.9.37,1.23,1.23,0,0,1-.91-.37,1.29,1.29,0,0,1-.37-.91v-1.72a.42.42,0,0,0-.13-.31.45.45,0,0,0-.3-.13.43.43,0,0,0-.3.13.42.42,0,0,0-.13.31v1.72a1.17,1.17,0,0,1-.44.91,1.56,1.56,0,0,1-1.06.37h-.43a6.1,6.1,0,0,1-2.16-.31,6,6,0,0,0,1.28-1.33,2.37,2.37,0,0,0,.53-1.33,1.23,1.23,0,0,0-.74-1.1,3.46,3.46,0,0,0-1.75-.41,4,4,0,0,0-2.23.58.92.92,0,0,0-.48.75,3.06,3.06,0,0,0,.53,1.38,5.23,5.23,0,0,0,1.34,1.47,8,8,0,0,1-2.41.3H101c0-2.51-.76-3.77-2.14-3.77a1.92,1.92,0,0,0-1.55.74,2.7,2.7,0,0,0-.6,1.74,2,2,0,0,0,.53,1.52,2.6,2.6,0,0,0,1.86.53h1.07a2.19,2.19,0,0,1-.65,1.5,2,2,0,0,1-1.39.49,3.57,3.57,0,0,1-.74-.07l-.37-.08a.41.41,0,0,0-.28.11.37.37,0,0,0-.11.27q0,.31.39.42a4.18,4.18,0,0,0,1,.12,2.68,2.68,0,0,0,2.93-2.76h1.52a8.76,8.76,0,0,0,1.8-.15,6.36,6.36,0,0,0,1.32-.43,6.32,6.32,0,0,0,2.82.58h.5a2.42,2.42,0,0,0,1.16-.27,2,2,0,0,0,.77-.69,1.76,1.76,0,0,0,1.71,1,1.78,1.78,0,0,0,1.71-1,2,2,0,0,0,3.41,0,1.77,1.77,0,0,0,.76.69,2.41,2.41,0,0,0,1.17.27,2.33,2.33,0,0,0,1.83-.73,2.56,2.56,0,0,0,.65-1.81v-5.51A.44.44,0,0,0,122,166.19Zm-21.82,7.59H99a1.65,1.65,0,0,1-1.11-.33,1.43,1.43,0,0,1-.38-1.12,1.49,1.49,0,0,1,.38-1.05,1.18,1.18,0,0,1,.91-.41c.91,0,1.36.92,1.36,2.76Zm5.46-.69a4,4,0,0,1-1.83-2.4,2.75,2.75,0,0,1,1.78-.56,2.69,2.69,0,0,1,1.19.24.76.76,0,0,1,.5.68,1.69,1.69,0,0,1-.49,1A5.36,5.36,0,0,1,105.64,173.09Z"/><path class="cls-2" d="M124.27,166.49a.44.44,0,0,1,.12-.3.42.42,0,0,1,.31-.13.4.4,0,0,1,.31.13.44.44,0,0,1,.12.3v7.73a.43.43,0,0,1-.43.43.46.46,0,0,1-.31-.13.44.44,0,0,1-.12-.3Z"/><path class="cls-2" d="M131,166.33a.38.38,0,0,1,.12.29.4.4,0,0,1,0,.17L128,176a.4.4,0,0,1-.4.34.43.43,0,0,1-.28-.11.38.38,0,0,1-.12-.29.4.4,0,0,1,0-.17l3.12-9.21a.38.38,0,0,1,.4-.31A.39.39,0,0,1,131,166.33Z"/><path class="cls-2" d="M134.19,170.12a.46.46,0,0,1,.62,0,.44.44,0,0,1,.12.32v4.3a2.8,2.8,0,0,1-.57,1.95,2.24,2.24,0,0,1-1.73.61,3.1,3.1,0,0,1-.56,0,.37.37,0,0,1-.27-.37.33.33,0,0,1,.1-.24.33.33,0,0,1,.23-.11h.51a1.29,1.29,0,0,0,1.09-.43,1.78,1.78,0,0,0,.34-1.1v-4.6A.44.44,0,0,1,134.19,170.12Z"/><path class="cls-2" d="M77.16,182.59a.38.38,0,0,1,.29.12.41.41,0,0,1,.11.28.44.44,0,0,1-.11.29.38.38,0,0,1-.29.12,1.65,1.65,0,0,0-1.19.41,1.52,1.52,0,0,0-.44,1.15v2.91a.45.45,0,0,1-.12.33.46.46,0,0,1-.62,0,.45.45,0,0,1-.12-.33V183a.44.44,0,0,1,.12-.32.46.46,0,0,1,.62,0,.44.44,0,0,1,.12.32v.46A1.9,1.9,0,0,1,77.16,182.59Z"/><path class="cls-2" d="M82.06,180a.38.38,0,0,1,.11.29.42.42,0,0,1,0,.17L79,189.64a.4.4,0,0,1-.4.34.43.43,0,0,1-.28-.11.38.38,0,0,1-.12-.29.4.4,0,0,1,0-.17l3.12-9.21a.38.38,0,0,1,.4-.31A.4.4,0,0,1,82.06,180Z"/><path class="cls-2" d="M88.3,181.38a.44.44,0,0,1-.12.3.42.42,0,0,1-.3.12.46.46,0,0,1-.19,0l-.26-.13-.27-.12a2.67,2.67,0,0,0-1.08-.21,1.93,1.93,0,0,0-1.18.31,1,1,0,0,0-.43.84,1,1,0,0,0,.35.82,5.36,5.36,0,0,0,1.27.67l.69.29a3,3,0,0,1,1.16.79,1.8,1.8,0,0,1,.4,1.19,1.84,1.84,0,0,1-.76,1.54,3.25,3.25,0,0,1-2,.57,4.17,4.17,0,0,1-2.06-.51.55.55,0,0,1-.33-.45.4.4,0,0,1,.12-.29.42.42,0,0,1,.31-.13.63.63,0,0,1,.21.05l.3.13.3.14a3.2,3.2,0,0,0,1.22.24,2.49,2.49,0,0,0,1.25-.28.93.93,0,0,0,.5-.88,1,1,0,0,0-.32-.84,3.86,3.86,0,0,0-1.08-.61l-.66-.27c-1.2-.5-1.8-1.19-1.8-2.08a1.85,1.85,0,0,1,.7-1.46,2.84,2.84,0,0,1,1.91-.6,3.39,3.39,0,0,1,1.8.45C88.18,181.06,88.3,181.21,88.3,181.38Z"/><path class="cls-2" d="M91.56,182.59a2.12,2.12,0,0,1,1.52.55,2.22,2.22,0,0,1,.59,1.7v3a.45.45,0,0,1-.12.33.41.41,0,0,1-.31.12.44.44,0,0,1-.32-.12.45.45,0,0,1-.12-.33v-.46a2,2,0,0,1-1.72.91,1.56,1.56,0,0,1-1.13-.4,1.35,1.35,0,0,1-.43-1,1.5,1.5,0,0,1,.65-1.25,4.61,4.61,0,0,1,2.63-.68v-.13c0-1-.41-1.44-1.24-1.44a2.75,2.75,0,0,0-.85.16,4.08,4.08,0,0,1-.71.23.32.32,0,0,1-.23-.1.33.33,0,0,1-.1-.24.38.38,0,0,1,.18-.33A3,3,0,0,1,91.56,182.59Zm-.22,5a1.34,1.34,0,0,0,1-.47,2,2,0,0,0,.42-1.38v-.09a3.63,3.63,0,0,0-2,.45.9.9,0,0,0-.41.74.66.66,0,0,0,.25.53A1,1,0,0,0,91.34,187.59Z"/><path class="cls-2" d="M99.09,182.71a.46.46,0,0,1,.62,0,.44.44,0,0,1,.12.32v4.84a.45.45,0,0,1-.12.33.46.46,0,0,1-.62,0,.45.45,0,0,1-.12-.33v-.41a1.86,1.86,0,0,1-1.61.86,1.76,1.76,0,0,1-1.87-1.94V183a.41.41,0,0,1,.44-.44.43.43,0,0,1,.31.12.44.44,0,0,1,.12.32v3.18a1.45,1.45,0,0,0,.33,1.06,1.17,1.17,0,0,0,.84.32A1.43,1.43,0,0,0,99,186.17V183A.44.44,0,0,1,99.09,182.71Z"/><path class="cls-2" d="M105.55,180.21a.46.46,0,0,1,.62,0,.45.45,0,0,1,.12.33v7.33a.45.45,0,0,1-.12.33.46.46,0,0,1-.62,0,.45.45,0,0,1-.12-.33v-.35a1.87,1.87,0,0,1-1.61.8,2.58,2.58,0,0,1-.88-.15,2.74,2.74,0,0,1-.77-.48,2.14,2.14,0,0,1-.58-.91,4.54,4.54,0,0,1,0-2.73,2,2,0,0,1,.57-.87,2.45,2.45,0,0,1,.75-.45,2.58,2.58,0,0,1,.83-.14,1.9,1.9,0,0,1,1.69.89v-2.94A.45.45,0,0,1,105.55,180.21ZM104,187.59a1.36,1.36,0,0,0,1-.47,1.76,1.76,0,0,0,.41-1.18v-1.08a1.62,1.62,0,0,0-.41-1.08,1.46,1.46,0,0,0-1.14-.46,1.56,1.56,0,0,0-1.15.47,2.26,2.26,0,0,0-.46,1.61,2.49,2.49,0,0,0,.47,1.67A1.56,1.56,0,0,0,104,187.59Z"/><path class="cls-2" d="M108.76,181.45a.58.58,0,0,1-.57-.57.54.54,0,0,1,.17-.39.56.56,0,0,1,.8,0,.53.53,0,0,1,.16.39.54.54,0,0,1-.16.4A.54.54,0,0,1,108.76,181.45Zm-.32,1.26a.41.41,0,0,1,.31-.12.4.4,0,0,1,.31.12.44.44,0,0,1,.12.32v4.84a.45.45,0,0,1-.12.33.4.4,0,0,1-.31.12.41.41,0,0,1-.31-.12.45.45,0,0,1-.12-.33V183A.44.44,0,0,1,108.44,182.71Z"/><path class="cls-2" d="M117.36,187.66a.58.58,0,0,1,0,.21.45.45,0,0,1-.12.32.37.37,0,0,1-.29.13.46.46,0,0,1-.46-.31l-.9-2.2H112.4l-.91,2.22a.43.43,0,0,1-.43.29.45.45,0,0,1-.33-.14.48.48,0,0,1-.12-.31.56.56,0,0,1,0-.21l2.8-6.72c.12-.31.31-.46.55-.46a.5.5,0,0,1,.34.11,1,1,0,0,1,.21.35ZM112.73,185h2.57L114,181.87Z"/><path class="cls-2" d="M121.33,182.59a.36.36,0,0,1,.28.12.38.38,0,0,1,.12.28.4.4,0,0,1-.12.29.36.36,0,0,1-.28.12,1.69,1.69,0,0,0-1.2.41,1.52,1.52,0,0,0-.43,1.15v2.91a.45.45,0,0,1-.12.33.41.41,0,0,1-.31.12.44.44,0,0,1-.32-.12.45.45,0,0,1-.12-.33V183a.41.41,0,0,1,.44-.44.41.41,0,0,1,.31.12.44.44,0,0,1,.12.32v.46A1.88,1.88,0,0,1,121.33,182.59Z"/><path class="cls-2" d="M124.34,182.59a2.12,2.12,0,0,1,1.52.55,2.22,2.22,0,0,1,.58,1.7v3a.45.45,0,0,1-.12.33.4.4,0,0,1-.31.12.41.41,0,0,1-.31-.12.45.45,0,0,1-.12-.33v-.46a2,2,0,0,1-1.72.91,1.6,1.6,0,0,1-1.14-.4,1.38,1.38,0,0,1-.42-1,1.47,1.47,0,0,1,.65-1.25,4.61,4.61,0,0,1,2.63-.68v-.13c0-1-.42-1.44-1.24-1.44a2.81,2.81,0,0,0-.86.16,4.14,4.14,0,0,1-.7.23.3.3,0,0,1-.23-.1.33.33,0,0,1-.1-.24.38.38,0,0,1,.18-.33A3,3,0,0,1,124.34,182.59Zm-.22,5a1.36,1.36,0,0,0,1-.47,2,2,0,0,0,.42-1.38v-.09a3.58,3.58,0,0,0-2,.45.88.88,0,0,0-.41.74.68.68,0,0,0,.24.53A1,1,0,0,0,124.12,187.59Z"/><path class="cls-2" d="M130.92,182.59a2.54,2.54,0,0,1,.83.14,2.45,2.45,0,0,1,.75.45,2,2,0,0,1,.57.87,4.54,4.54,0,0,1,0,2.73,2.14,2.14,0,0,1-.58.91,2.74,2.74,0,0,1-.77.48,2.54,2.54,0,0,1-.88.15,1.86,1.86,0,0,1-1.6-.8v.35a.45.45,0,0,1-.12.33.44.44,0,0,1-.32.12.41.41,0,0,1-.31-.12.45.45,0,0,1-.12-.33v-7.33a.45.45,0,0,1,.12-.33.41.41,0,0,1,.31-.12.44.44,0,0,1,.32.12.45.45,0,0,1,.12.33v2.94A1.88,1.88,0,0,1,130.92,182.59Zm-.23,5a1.56,1.56,0,0,0,1.23-.52,2.43,2.43,0,0,0,.47-1.67,2.26,2.26,0,0,0-.46-1.61,1.56,1.56,0,0,0-1.15-.47,1.42,1.42,0,0,0-1.13.46,1.57,1.57,0,0,0-.41,1.08v1.08a1.72,1.72,0,0,0,.41,1.18A1.33,1.33,0,0,0,130.69,187.59Z"/><path class="cls-2" d="M135.27,181.45a.58.58,0,0,1-.57-.57.54.54,0,0,1,.17-.39.56.56,0,0,1,.8,0,.53.53,0,0,1,.16.39.54.54,0,0,1-.16.4A.54.54,0,0,1,135.27,181.45Zm-.32,1.26a.41.41,0,0,1,.31-.12.4.4,0,0,1,.31.12.44.44,0,0,1,.12.32v4.84a.45.45,0,0,1-.12.33.4.4,0,0,1-.31.12.41.41,0,0,1-.31-.12.45.45,0,0,1-.12-.33V183A.44.44,0,0,1,135,182.71Z"/><path class="cls-2" d="M139.32,182.59a2.12,2.12,0,0,1,1.52.55,2.22,2.22,0,0,1,.59,1.7v3a.45.45,0,0,1-.13.33.4.4,0,0,1-.31.12.41.41,0,0,1-.31-.12.45.45,0,0,1-.12-.33v-.46a2,2,0,0,1-1.72.91,1.56,1.56,0,0,1-1.13-.4,1.35,1.35,0,0,1-.43-1,1.47,1.47,0,0,1,.65-1.25,4.61,4.61,0,0,1,2.63-.68v-.13c0-1-.42-1.44-1.24-1.44a2.81,2.81,0,0,0-.86.16,3.85,3.85,0,0,1-.7.23.3.3,0,0,1-.23-.1.33.33,0,0,1-.1-.24.38.38,0,0,1,.18-.33A3,3,0,0,1,139.32,182.59Zm-.22,5a1.36,1.36,0,0,0,1-.47,2,2,0,0,0,.42-1.38v-.09a3.58,3.58,0,0,0-2,.45.88.88,0,0,0-.41.74.68.68,0,0,0,.24.53A1,1,0,0,0,139.1,187.59Z"/><path class="cls-3" d="M29.55,101.4a1.69,1.69,0,0,0-1.24-.52,1.7,1.7,0,0,0-1.27.52,1.69,1.69,0,0,0-.52,1.23A1.76,1.76,0,0,0,27,103.9a1.7,1.7,0,0,0,1.27.52,1.69,1.69,0,0,0,1.24-.52,1.76,1.76,0,0,0,.52-1.27A1.69,1.69,0,0,0,29.55,101.4Zm5.19,0a1.69,1.69,0,0,0-1.24-.52,1.72,1.72,0,0,0-1.27.52,1.65,1.65,0,0,0-.52,1.23,1.78,1.78,0,0,0,1.79,1.79,1.69,1.69,0,0,0,1.24-.52,1.76,1.76,0,0,0,.52-1.27A1.69,1.69,0,0,0,34.74,101.4Z"/><path class="cls-3" d="M51.22,99.66a1.18,1.18,0,0,0-1-.61.89.89,0,0,0-.59.25.8.8,0,0,0-.27.61,2.51,2.51,0,0,0,.34,1,3,3,0,0,1,.34,1.33,1.2,1.2,0,0,1-.38.93,1.26,1.26,0,0,1-.91.36c-.91,0-1.36-.66-1.36-2a.89.89,0,0,0-.25-.68.84.84,0,0,0-.64-.25c-.58,0-.86.31-.86.93a4.47,4.47,0,0,1-.42,2,1.28,1.28,0,0,1-1.2.82,1.24,1.24,0,0,1-.87-.32,1.17,1.17,0,0,1-.34-.9,1.94,1.94,0,0,1,.28-.89,1.69,1.69,0,0,0,.29-.82.81.81,0,0,0-.25-.59.83.83,0,0,0-.65-.27c-.38,0-.73.28-1.07.86a3.71,3.71,0,0,0-.5,1.89,2.67,2.67,0,0,0,.75,2,2.63,2.63,0,0,0,1.94.75,3,3,0,0,0,3-1.71,2.52,2.52,0,0,0,2.07.82A3.24,3.24,0,0,0,51,104.3a3.08,3.08,0,0,0,.95-2.31A4.11,4.11,0,0,0,51.22,99.66Z"/><path class="cls-3" d="M43.69,128a1.72,1.72,0,0,0-1.24-.52,1.74,1.74,0,0,0-1.27.52,1.72,1.72,0,0,0-.52,1.24,1.76,1.76,0,0,0,.52,1.27,1.7,1.7,0,0,0,1.27.52,1.69,1.69,0,0,0,1.24-.52,1.75,1.75,0,0,0,.51-1.27A1.71,1.71,0,0,0,43.69,128Zm5.19,0a1.72,1.72,0,0,0-1.24-.52,1.76,1.76,0,0,0-1.27.52,1.69,1.69,0,0,0-.52,1.24A1.78,1.78,0,0,0,47.64,131a1.69,1.69,0,0,0,1.24-.52,1.76,1.76,0,0,0,.52-1.27A1.72,1.72,0,0,0,48.88,128Z"/><path class="cls-3" d="M47.37,109.31a1.27,1.27,0,0,0-.91-.41,1.34,1.34,0,0,0-1,.41,1.3,1.3,0,0,0-.42,1v6.55a4.71,4.71,0,0,1-1.45,3.5,4.8,4.8,0,0,1-3.52,1.44h-1c-1.46,0-2.19-.84-2.19-2.51v-10.7a1.27,1.27,0,0,0-.41-1,1.31,1.31,0,0,0-1-.41,1.33,1.33,0,0,0-.95.41,1.31,1.31,0,0,0-.41,1v.86A12.44,12.44,0,0,0,26.43,112a7.28,7.28,0,0,0-3,5.75,5.41,5.41,0,0,0,1.4,3.78A4.68,4.68,0,0,0,28.45,123a5.5,5.5,0,0,0,3.46-1.19,7,7,0,0,0,2.27-3.18V120a3.72,3.72,0,0,0,1.29,3.08,5.34,5.34,0,0,0,3.47,1h1.15A7.51,7.51,0,0,0,45.67,122a7.84,7.84,0,0,0,2.11-5.78v-5.94A1.29,1.29,0,0,0,47.37,109.31Zm-13.19,4A9.91,9.91,0,0,1,32.55,118a4.3,4.3,0,0,1-3.67,2.34,3,3,0,0,1-2.09-.71,2.74,2.74,0,0,1-.77-2.12,4.57,4.57,0,0,1,2.27-3.9A11,11,0,0,1,34.18,112Z"/><path class="cls-3" d="M66.2,114.76a13.77,13.77,0,0,0-3.22-3.2,24.19,24.19,0,0,0-3.58-2.13,6.92,6.92,0,0,0-2.52-.82,1,1,0,0,0-.73.32,1.08,1.08,0,0,0-.31.79.83.83,0,0,0,.22.57,1.58,1.58,0,0,0,.41.38q.2.12.84.45c1.14.59,2.07,1.1,2.79,1.54a28.21,28.21,0,0,1,2.36,1.62,7.46,7.46,0,0,1,1.92,2.06,4.34,4.34,0,0,1,.62,2.22,2.7,2.7,0,0,1-1.18,2.34,5.37,5.37,0,0,1-3.22.85H54.52a1.16,1.16,0,0,0-1.19,1.18,1.16,1.16,0,0,0,.34.84,1.15,1.15,0,0,0,.85.34h5.72q7.35,0,7.34-5.62A6.37,6.37,0,0,0,66.2,114.76Z"/><path class="cls-3" d="M182.7,97.89a1.26,1.26,0,0,0-1-.42,1.3,1.3,0,0,0-1,.42,1.33,1.33,0,0,0-.39,1v17.83a5.14,5.14,0,0,1-8.42,3.9,3.7,3.7,0,0,1-1.36-2.87v-7.44a1.33,1.33,0,0,0-.41-1,1.37,1.37,0,0,0-2.31,1v7.44a4,4,0,0,1-1.16,2.87,4,4,0,0,1-5.69,0,3.94,3.94,0,0,1-1.17-2.87v-5.4a1.29,1.29,0,0,0-.41-1,1.29,1.29,0,0,0-1.89,0,1.29,1.29,0,0,0-.41,1v5.4a4,4,0,0,1-1.17,2.87,4,4,0,0,1-5.69,0,3.94,3.94,0,0,1-1.17-2.87v-5.4a1.29,1.29,0,0,0-.41-1,1.29,1.29,0,0,0-1.89,0,1.29,1.29,0,0,0-.41,1v5.4a3.68,3.68,0,0,1-1.37,2.87,4.9,4.9,0,0,1-3.32,1.18H130.29a24.4,24.4,0,0,1-5.3,2.36h16.73a7.68,7.68,0,0,0,3.63-.84,6.08,6.08,0,0,0,2.41-2.17,6.3,6.3,0,0,0,10.74,0,6.3,6.3,0,0,0,10.75,0,5.64,5.64,0,0,0,2.36,2.19,8,8,0,0,0,3.68.82,7.38,7.38,0,0,0,5.75-2.27,8.21,8.21,0,0,0,2.06-5.71V98.84A1.3,1.3,0,0,0,182.7,97.89ZM87.23,121.75Q87,109.9,80.51,109.9a6,6,0,0,0-4.88,2.32,8.4,8.4,0,0,0-1.89,5.45,6.48,6.48,0,0,0,1.66,4.78q1.66,1.67,5.85,1.66h3.37a6.82,6.82,0,0,1-2,4.73,6.41,6.41,0,0,1-4.37,1.54,10.86,10.86,0,0,1-2.32-.24l-1.19-.23a1.16,1.16,0,0,0-.85.34,1.11,1.11,0,0,0-.37.84c0,.67.41,1.11,1.22,1.33a12.88,12.88,0,0,0,3.3.39q8.34,0,9.2-8.7h18.58a24.4,24.4,0,0,1-5.3-2.36Zm-2.58,0H81a5.22,5.22,0,0,1-3.5-1,4.49,4.49,0,0,1-1.19-3.54,4.65,4.65,0,0,1,1.19-3.3,3.75,3.75,0,0,1,2.85-1.28q4.29,0,4.29,8.66Z"/><path class="cls-3" d="M192.16,97.89a1.3,1.3,0,0,0-1-.42,1.28,1.28,0,0,0-1,.42,1.33,1.33,0,0,0-.39,1v24.27a1.37,1.37,0,0,0,.39,1,1.31,1.31,0,0,0,1,.41,1.32,1.32,0,0,0,1-.41,1.37,1.37,0,0,0,.39-1V98.84A1.33,1.33,0,0,0,192.16,97.89Z"/><path class="cls-3" d="M115.39,126.48c-12.72,0-23.06-6.94-23.06-15.47s10.34-15.48,23.06-15.48,23,7,23,15.48S128.1,126.48,115.39,126.48Zm0-29.09c-11.69,0-21.2,6.11-21.2,13.62s9.51,13.61,21.2,13.61,21.19-6.1,21.19-13.61S127.07,97.39,115.39,97.39Z"/><path class="cls-3" d="M133.28,92.83A4.83,4.83,0,1,1,138.11,88,4.83,4.83,0,0,1,133.28,92.83Zm0-7.8a3,3,0,1,0,3,3A3,3,0,0,0,133.28,85Z"/><path class="cls-3" d="M92.82,109.42a5.91,5.91,0,1,1,7-9.35l-1.31,1.32a4,4,0,0,0-2.87-1.19,4.05,4.05,0,0,0-2,7.6Z"/><path class="cls-3" d="M138,109.42l-.9-1.62a4.05,4.05,0,0,0-2-7.6,4,4,0,0,0-2.86,1.19L131,100.07a5.91,5.91,0,1,1,7,9.35Z"/><path class="cls-3" d="M104.43,108.27a3.63,3.63,0,1,1,3.63,3.64A3.63,3.63,0,0,1,104.43,108.27Z"/><path class="cls-3" d="M119.59,108.27a3.64,3.64,0,1,1,3.63,3.64A3.64,3.64,0,0,1,119.59,108.27Z"/><path class="cls-3" d="M115.54,97a1.12,1.12,0,0,1-.31,0,.94.94,0,0,1-.57-1.19l4.2-11.93,10.31,2.47a.93.93,0,0,1-.44,1.8L120.06,86l-3.64,10.35A.94.94,0,0,1,115.54,97Z"/><path class="cls-3" d="M115.34,120.86c-5.92,0-8.29-2.69-8.38-2.8a.93.93,0,1,1,1.4-1.21c0,.06,2,2.16,7,2.16s7.25-2.18,7.27-2.2A.93.93,0,0,1,124,118.1C123.84,118.21,121.23,120.86,115.34,120.86Z"/></g></g></svg>